name processed_emg_signals
nRows=42
nColumns=7
 
endheader
time	LGLTMED	LRF	LADDLONG	LST	LTA	LGM
1.16	0.9952095843976476	0.3550513422334124	0.6346220904133623	0.1403950181630302	0.1640824256066763	0.3647012435260119
1.161	0.9962753348272446	0.3555022639441417	0.6356668961856726	0.1355722388065486	0.1657172526993367	0.366037585102359
1.162	0.99720389514961	0.3559345703195343	0.6366128789167004	0.1309460168673047	0.1674388507353124	0.3674151361131586
1.163	0.9979968371251948	0.3563516333084355	0.6374628371785387	0.1265148016596168	0.1692451603140149	0.3688328584304195
1.164	0.9986557776369068	0.3567568621733997	0.6382196776306416	0.1222768755313921	0.1711339888762109	0.3702895831853493
1.165	0.9991823770302124	0.3571536962692878	0.6388864072095753	0.1182303596313393	0.1731030142550912	0.37178401210551
1.166	0.9995783374693492	0.3575455977471622	0.6394661250924033	0.1143732197593994	0.1751497884518185	0.373314719146521
1.167	0.999845401312091	0.3579360442010758	0.639962014463147	0.1107032722883614	0.1772717416290069	0.3748801524167211
1.168	0.9999853495048904	0.3583285212750507	0.640377334111835	0.1072181901450547	0.1794661863151107	0.3764786363923201
1.169	1.0	0.3587265152471772	0.6407154098959583	0.1039155088398495	0.1817303218120954	0.3781083744199764
1.17	0.9998912061952404	0.3591335056073786	0.6409796260936661	0.1007926325334484	0.1840612387984178	0.3797674515033236
1.171	0.999660855396408	0.3595529576447685	0.6411734166776927	0.0978468401302213	0.1864559241188827	0.3814538373695041
1.172	0.9993108673014388	0.359988315060074	0.6413002565383122	0.095075291387444	0.1889112657526455	0.3831653898110004
1.173	0.9988431925050072	0.3604429926181859	0.6413636526837649	0.0924750330299555	0.191424057950175	0.3848998582971967
1.174	0.9982598110212316	0.3609203688554727	0.6413671354464561	0.0900430048599358	0.1939910065295662	0.3866548878492654
1.175	0.9975627308219612	0.3614237788561907	0.6413142497238046	0.0877760458519085	0.1966087343221089	0.3884280231714152
1.176	0.9967539863869034	0.3619565071118719	0.6412085462828878	0.0856709002235839	0.1992737867567294	0.3902167130311826
1.177	0.9958356372605974	0.3625217804771112	0.6410535731578938	0.0837242234738428	0.2019826375727003	0.3920183148810666
1.178	0.994809766610222	0.3631227612348401	0.6408528671688681	0.0819325883798207	0.2047316946499645	0.3938300997135639
1.179	0.9936784797769244	0.3637625402841643	0.6406099455892988	0.0802924909458697	0.2075173059462423	0.3956492571416246
1.18	0.9924439028127936	0.364444130464036	0.6403282979885186	0.0788003562977331	0.2103357655300231	0.3974729006965645
1.181	0.9911081809954192	0.3651704600264179	0.6400113782735908	0.0774525445157202	0.2131833196982735	0.3992980733355377
1.182	0.9896734773117382	0.3659443662731631	0.6396625969533805	0.0762453564009803	0.2160561731674833	0.4011217531504736
1.183	0.988141970902524	0.3667685893708904	0.6392853136461705	0.0751750391693684	0.2189504953262516	0.4029408592701104
1.184	0.9865158554582608	0.3676457663583531	0.6388828298503323	0.0742377920678328	0.2218624265372765	0.404752257946226
1.185	0.9847973375566432	0.3685784253601979	0.6384583819960942	0.0734297719088161	0.2247880844761461	0.4065527688144455
1.186	0.982988634932873	0.3695689800205673	0.6380151347948663	0.0727470985185542	0.2277235704938172	0.4083391713189725
1.187	0.9810919746750416	0.3706197241686659	0.6375561749008797	0.072185860095463	0.2306649759890724	0.4101082112894286
1.188	0.9791095913392668	0.3717328267274613	0.6370845048984206	0.0717421184750033	0.2336083887766264	0.4118566076566356
1.189	0.9770437249825936	0.3729103268752061	0.6366030376264584	0.0714119142974911	0.2365498994362964	0.4135810592930167
1.19	0.9748966191151992	0.3741541294684088	0.6361145908503474	0.0711912720754646	0.2394856076285387	0.4152782519621443
1.191	0.97267051857815	0.3754660007336751	0.6356218822886263	0.0710762051573264	0.2424116283621041	0.4169448653612714
1.192	0.9703676673572308	0.3768475642351038	0.6351275250009305	0.0710627205841566	0.2453240982001246	0.4185775802401212
1.193	0.9679903063476264	0.3783002971230101	0.6346340231414485	0.0711468238366773	0.2482191813917631	0.4201730855790155
1.194	0.9655406710879252	0.3798255266690429	0.6341437680808779	0.0713245234695903	0.2510930759170956	0.4217280858094869
1.195	0.9630209894843044	0.3814244270921121	0.6336590348986482	0.0715918356305431	0.2539420194335913	0.4232393080606812
1.196	0.9604334795469682	0.3830980166787144	0.6331819792456	0.0719447884611929	0.2567622951129675	0.4247035094150722
1.197	0.9577803471605012	0.3848471552006324	0.6327146345756206	0.0723794263779609	0.259550237357694	0.4261174841567968
1.198	0.95506378390836	0.3866725416323552	0.6322589097426942	0.0728918142303495	0.2623022373870097	0.427478070995295
1.199	0.952285964969384	0.3885747121699517	0.6318165869578154	0.0734780413348585	0.2650147486831277	0.4287821602460753
1.2	0.9494490471018936	0.3905540385528214	0.6313893200981914	0.0741342253828346	0.2676842922888945	0.4300267009494031
1.201	0.9465551667286004	0.3926107266891593	0.6309786333599305	0.0748565162206959	0.2703074619487893	0.4312087079067986
